<svg width="11" height="15" viewBox="0 0 11 15" fill="none" xmlns="http://www.w3.org/2000/svg">
<path d="M9.89172 2.99938C10.6492 4.62938 10.4773 6.54813 9.63859 8.1075C8.95047 9.38688 7.92359 10.445 7.07734 11.6163C6.69047 12.1525 6.29984 12.71 6.03422 13.3206C5.94609 13.5238 5.86984 13.7319 5.79484 13.9406C5.71922 14.1488 5.65484 14.3613 5.58234 14.5706C5.51422 14.7669 5.43484 14.9981 5.19047 15H5.18609C4.89484 14.9994 4.82422 14.6688 4.75172 14.4456C4.57422 13.8994 4.38859 13.375 4.11484 12.8675C3.79609 12.2775 3.39922 11.7319 2.99609 11.1981L9.89172 2.99938ZM3.02797 4.81563L0.553596 7.7575C1.0061 8.72 1.69172 9.54688 2.34797 10.37C2.50234 10.5638 2.65672 10.7588 2.80859 10.955L5.92359 7.25188L5.90547 7.25813C4.81734 7.63376 3.59859 7.07626 3.16047 6.01626C3.10054 5.87237 3.05673 5.72229 3.02984 5.56876C2.99047 5.29563 2.98172 5.09313 3.02734 4.82001L3.02797 4.81563ZM1.11985 1.96813L1.11797 1.97063C-0.0989033 3.51188 -0.307653 5.64563 0.419847 7.45188L3.41047 3.89626L3.37422 3.86501L1.11985 1.96813ZM6.85047 0.27251L4.45172 3.12438C4.45724 3.12203 4.46287 3.11994 4.46859 3.11813C5.46859 2.77376 6.59547 3.21188 7.10609 4.13438C7.21609 4.33376 7.30797 4.56126 7.34172 4.78751C7.38422 5.06626 7.39484 5.27063 7.34922 5.55001L7.34734 5.56001L9.74484 2.70938C9.11831 1.56666 8.08836 0.698491 6.85609 0.274385L6.85047 0.27251ZM3.60359 3.66751L6.53859 0.178135L6.50922 0.170635C6.07492 0.0564761 5.62765 -0.000877191 5.17859 1.01399e-05C4.45147 0.00682061 3.73361 0.163909 3.0701 0.461408C2.40659 0.758907 1.81176 1.19039 1.32297 1.72876L1.31297 1.74001L3.60359 3.66751Z" fill="white"/>
</svg>
