<svg width="24" height="24" viewBox="0 0 24 24" fill="none" xmlns="http://www.w3.org/2000/svg">
<path d="M12 11.7073C13.7506 11.7073 15.4295 11.0906 16.6674 9.99282C17.9052 8.89505 18.6007 7.40615 18.6007 5.85366C18.6007 4.30117 17.9052 2.81227 16.6674 1.7145C15.4295 0.616723 13.7506 0 12 0C10.2494 0 8.57049 0.616723 7.33263 1.7145C6.09476 2.81227 5.39934 4.30117 5.39934 5.85366C5.39934 7.40615 6.09476 8.89505 7.33263 9.99282C8.57049 11.0906 10.2494 11.7073 12 11.7073ZM12 14.6341C5.38614 14.6341 0 18.5678 0 23.4146C0 23.7424 0.290429 24 0.660066 24H23.3399C23.7096 24 24 23.7424 24 23.4146C24 18.5678 18.6139 14.6341 12 14.6341Z" fill="black"/>
</svg>
