<?xml version="1.0" encoding="utf-8"?>
<!-- Generator: Adobe Illustrator 26.3.1, SVG Export Plug-In . SVG Version: 6.00 Build 0)  -->
<svg version="1.2" baseProfile="tiny" id="Слой_1"
	 xmlns="http://www.w3.org/2000/svg" xmlns:xlink="http://www.w3.org/1999/xlink" x="0px" y="0px" viewBox="0 0 595.28 841.89"
	 overflow="visible" xml:space="preserve">
<circle fill="#B4DBCB" stroke="#000000" stroke-miterlimit="10" cx="269.67" cy="365.87" r="55.07"/>
<circle fill="#FFFFFF" stroke="#000000" stroke-miterlimit="10" cx="269.67" cy="365.87" r="42.51"/>
<path fill="#FFFFFF" stroke="#000000" stroke-miterlimit="10" d="M299.32,394.06"/>
<path fill="#FFFFFF" stroke="#000000" stroke-miterlimit="10" d="M240.68,337.66"/>
<line fill="#FFFFFF" stroke="#000000" stroke-miterlimit="10" x1="243.18" y1="393.48" x2="296.77" y2="337.76"/>
<line fill="#FFFFFF" stroke="#000000" stroke-miterlimit="10" x1="243.06" y1="339.36" x2="298.77" y2="392.95"/>
<text transform="matrix(1 0 0 1 232.1331 379.4331)" font-family="'Algerian'" font-size="30px">w</text>
<text transform="matrix(1 0 0 1 260.9268 352.0132)" font-family="'Algerian'" font-size="30px">o</text>
<text transform="matrix(1 0 0 1 286.7463 377.3236)" font-family="'Algerian'" font-size="30px">r</text>
<text transform="matrix(1 0 0 1 261.6161 397.3334)" font-family="'Algerian'" font-size="30px">k</text>
<ellipse fill="none" cx="269.4" cy="369.78" rx="52.8" ry="48.22"/>
<text transform="matrix(1.104 -0.2792 0.2451 0.9695 251.4214 324.2769)" font-family="'MyriadPro-Regular'" font-size="13.134px">Р</text>
<text transform="matrix(1.1297 -0.1431 0.1257 0.9921 258.502 322.4707)" font-family="'MyriadPro-Regular'" font-size="13.134px">а</text>
<text transform="matrix(1.1386 -0.0169 0.0148 0.9999 265.3667 321.6157)" font-family="'MyriadPro-Regular'" font-size="13.134px">б</text>
<text transform="matrix(1.1288 0.1501 -0.1318 0.9913 273.0015 321.522)" font-family="'MyriadPro-Regular'" font-size="13.134px">о</text>
<text transform="matrix(1.1029 0.2835 -0.249 0.9685 280.7607 322.5913)" font-family="'MyriadPro-Regular'" font-size="13.134px">т</text>
<text transform="matrix(1.0644 0.4046 -0.3553 0.9347 286.3047 323.96)" font-family="'MyriadPro-Regular'" font-size="13.134px">а</text>
<ellipse fill="none" cx="269.4" cy="369.78" rx="52.8" ry="48.22"/>
<text transform="matrix(0.8235 0.7865 -0.6907 0.7232 230.0884 402.0059)" font-family="'MyriadPro-Regular'" font-size="13.134px"> </text>
<text transform="matrix(0.8762 0.7273 -0.6387 0.7694 232.6782 404.4604)" font-family="'MyriadPro-Regular'" font-size="13.134px"> </text>
<text transform="matrix(0.9237 0.666 -0.5849 0.8111 235.4229 406.7207)" font-family="'MyriadPro-Regular'" font-size="13.134px"> </text>
<text transform="matrix(0.9957 0.5525 -0.4852 0.8744 238.4775 409.0522)" font-family="'MyriadPro-Regular'" font-size="13.134px">В</text>
<text transform="matrix(1.0526 0.4346 -0.3817 0.9243 246.2061 413.1353)" font-family="'MyriadPro-Regular'" font-size="13.134px"> </text>
<text transform="matrix(1.0938 0.3167 -0.2781 0.9606 249.6851 414.6714)" font-family="'MyriadPro-Regular'" font-size="13.134px">У</text>
<text transform="matrix(1.1272 0.1615 -0.1418 0.9899 257.6084 416.9077)" font-family="'MyriadPro-Regular'" font-size="13.134px">к</text>
<text transform="matrix(1.1386 -0.0169 0.0148 0.9999 265.5718 418.0615)" font-family="'MyriadPro-Regular'" font-size="13.134px">р</text>
<text transform="matrix(1.1249 -0.1769 0.1553 0.9879 274.8604 417.8589)" font-family="'MyriadPro-Regular'" font-size="13.134px">а</text>
<text transform="matrix(1.085 -0.3456 0.3035 0.9528 282.8462 416.5796)" font-family="'MyriadPro-Regular'" font-size="13.134px">и</text>
<text transform="matrix(1.0131 -0.52 0.4566 0.8897 291.5981 413.7095)" font-family="'MyriadPro-Regular'" font-size="13.134px">н</text>
<text transform="matrix(0.9149 -0.6781 0.5954 0.8034 299.6387 409.4712)" font-family="'MyriadPro-Regular'" font-size="13.134px">е</text>
</svg>
