<?xml version="1.0" encoding="UTF-8"?>
<svg xmlns="http://www.w3.org/2000/svg" xmlns:xlink="http://www.w3.org/1999/xlink" width="10px" height="10px" viewBox="0 0 10 10" version="1.1">
<g id="surface1">
<path style=" stroke:none;fill-rule:nonzero;fill:rgb(0.784314%,18.431373%,19.607843%);fill-opacity:1;" d="M 7.816406 9.609375 C 7.75 9.609375 7.6875 9.597656 7.625 9.570312 L 5 8.378906 L 2.375 9.570312 C 2.3125 9.597656 2.25 9.609375 2.183594 9.609375 C 2.09375 9.609375 2 9.582031 1.921875 9.527344 C 1.792969 9.433594 1.722656 9.28125 1.742188 9.125 L 2.101562 6.347656 L 0.121094 4.308594 C 0.0078125 4.191406 -0.0273438 4.03125 0.0234375 3.878906 C 0.0703125 3.730469 0.203125 3.621094 0.363281 3.589844 L 3.210938 3.0625 L 4.609375 0.613281 C 4.6875 0.476562 4.835938 0.390625 5 0.390625 C 5.164062 0.390625 5.3125 0.476562 5.390625 0.613281 L 6.789062 3.0625 L 9.640625 3.589844 C 9.796875 3.621094 9.929688 3.730469 9.976562 3.878906 C 10.027344 4.03125 9.992188 4.191406 9.878906 4.308594 L 7.898438 6.347656 L 8.257812 9.125 C 8.277344 9.28125 8.207031 9.433594 8.078125 9.527344 C 8 9.582031 7.90625 9.609375 7.816406 9.609375 Z M 7.816406 9.609375 "/>
<path style=" stroke:none;fill-rule:nonzero;fill:rgb(93.333333%,31.764706%,29.019608%);fill-opacity:1;" d="M 5 0.820312 L 6.5 3.449219 L 9.554688 4.011719 L 7.429688 6.203125 L 7.816406 9.179688 L 5 7.90625 L 2.183594 9.179688 L 2.570312 6.203125 L 0.445312 4.011719 L 3.5 3.449219 Z M 5 0.820312 "/>
</g>
</svg>
