<svg width="22" height="20" viewBox="0 0 22 20" fill="none" xmlns="http://www.w3.org/2000/svg">
<path d="M21 6.59C21 8.56 20.49 10.3 19.69 11.81C19.242 11.3336 18.7013 10.9538 18.1011 10.6942C17.5009 10.4345 16.854 10.3003 16.2 10.3C13.55 10.3 11.4 12.45 11.4 15.1C11.4 16.33 11.87 17.45 12.63 18.3C12.26 18.47 11.92 18.61 11.62 18.71C11.28 18.83 10.72 18.83 10.38 18.71C7.48 17.72 1 13.59 1 6.59C1 3.5 3.49 1 6.56 1C8.37 1 9.99 1.88 11 3.23C11.5159 2.53881 12.1857 1.97739 12.9565 1.59029C13.7272 1.2032 14.5775 1.00109 15.44 1C18.51 1 21 3.5 21 6.59Z" stroke="black" stroke-width="1.5" stroke-linecap="round" stroke-linejoin="round"/>
</svg>
