<svg width="37" height="37" viewBox="0 0 37 37" fill="none" xmlns="http://www.w3.org/2000/svg">
<path d="M34.9941 28.9642L28.8736 22.8437L24.1658 20.8987C25.7334 18.6695 26.5732 16.0102 26.5701 13.2851C26.5701 5.95964 20.6105 0 13.2851 0C5.95964 0 0 5.95964 0 13.2851C0 20.6105 5.95964 26.5701 13.2851 26.5701C16.0339 26.5733 18.7152 25.719 20.9556 24.1262L22.8955 28.8213L29.0158 34.9421C29.4083 35.3346 29.8743 35.646 30.3872 35.8584C30.9 36.0709 31.4497 36.1802 32.0048 36.1803C32.5599 36.1803 33.1096 36.071 33.6225 35.8585C34.1353 35.6461 34.6013 35.3348 34.9939 34.9423C35.3864 34.5497 35.6978 34.0838 35.9103 33.5709C36.1227 33.058 36.2321 32.5084 36.2321 31.9532C36.2321 31.3981 36.1228 30.8484 35.9104 30.3356C35.6979 29.8227 35.3866 29.3567 34.9941 28.9642ZM2.41547 13.2851C2.41547 7.29169 7.29169 2.41547 13.2851 2.41547C19.2784 2.41547 24.1547 7.29169 24.1547 13.2851C24.1547 19.2784 19.2784 24.1547 13.2851 24.1547C7.29169 24.1547 2.41547 19.2784 2.41547 13.2851ZM33.286 33.2341C32.9459 33.5733 32.4852 33.7639 32.0049 33.7639C31.5246 33.7639 31.0639 33.5733 30.7239 33.2341L24.944 27.4542L23.1404 23.0886L27.5061 24.8922L33.2861 30.6721C33.6253 31.0122 33.8158 31.4729 33.8158 31.9531C33.8157 32.4334 33.6252 32.8941 33.286 33.2341Z" fill="black"/>
</svg>
